<?xml version="1.0" encoding="UTF-8" standalone="yes"?><svg xmlns="http://www.w3.org/2000/svg" xmlns:xlink="http://www.w3.org/1999/xlink" width="900px" height="358px" viewBox="0 0 900 358" version="1.1"><g id='iconGroup'>
<g id="surface1">
<path style=" stroke:none;fill-rule:evenodd;fill:rgb(0%,85.098039%,82.352941%);fill-opacity:1;" d="M 0 0.0117188 C 0 64.585938 52.253906 116.929688 116.722656 116.929688 L 116.722656 0.0117188 Z M 0 0.0117188 "/>
<path style=" stroke:none;fill-rule:evenodd;fill:rgb(0%,56.470588%,87.058824%);fill-opacity:1;" d="M 116.722656 0.0117188 L 116.722656 116.929688 C 181.1875 116.929688 233.445312 64.585938 233.445312 0.0117188 Z M 116.722656 0.0117188 "/>
<path style=" stroke:none;fill-rule:evenodd;fill:rgb(100%,9.803922%,62.352941%);fill-opacity:1;" d="M 116.722656 116.929688 L 0 116.929688 C 0 181.5 52.253906 233.84375 116.722656 233.84375 Z M 116.722656 116.929688 "/>
<path style=" stroke:none;fill-rule:evenodd;fill:rgb(68.627451%,18.039216%,100%);fill-opacity:1;" d="M 116.722656 116.972656 L 116.722656 233.890625 C 181.1875 233.890625 233.445312 181.546875 233.445312 116.972656 Z M 116.722656 116.972656 "/>
<path style=" stroke:none;fill-rule:evenodd;fill:rgb(100%,74.901961%,0%);fill-opacity:1;" d="M 116.722656 233.890625 L 0 233.890625 C 0 298.464844 52.253906 350.804688 116.722656 350.804688 L 116.722656 233.84375 Z M 116.722656 233.890625 "/>
</g>
</g><g id='primary_textGroup'><path fill="#082e40" d="M427.23 234.21L427.23 106.09L395.87 106.09L395.87 156.00L341.95 156.00L341.95 106.09L310.40 106.09L310.40 234.21L341.95 234.21L341.95 183.54L395.87 183.54L395.87 234.21Z"/><path fill="#082e40" d="M550.36 234.21L550.36 138.22L519.76 138.22L519.76 145.87C512.31 139.17 502.36 135.35 489.93 135.35C464.50 135.35 443.09 156.00 443.09 186.21C443.09 216.62 464.50 237.08 489.93 237.08C502.36 237.08 512.31 233.25 519.76 226.56L519.76 234.21ZM496.24 211.07C482.86 211.07 473.11 201.13 473.11 186.21C473.11 171.49 482.86 161.36 496.24 161.36C508.67 161.36 519.76 171.49 519.76 186.21C519.76 201.13 508.67 211.07 496.24 211.07Z"/><path fill="#082e40" d="M673.36 234.21L673.36 96.53L642.76 96.53L642.76 145.87C635.31 139.17 625.36 135.35 612.93 135.35C587.50 135.35 566.09 156.00 566.09 186.21C566.09 216.62 587.50 237.08 612.93 237.08C625.36 237.08 635.31 233.25 642.76 226.56L642.76 234.21ZM619.24 211.07C605.86 211.07 596.11 201.13 596.11 186.21C596.11 171.49 605.86 161.36 619.24 161.36C631.67 161.36 642.76 171.49 642.76 186.21C642.76 201.13 631.67 211.07 619.24 211.07Z"/><path fill="#082e40" d="M796.36 234.21L796.36 138.22L765.76 138.22L765.76 145.87C758.31 139.17 748.36 135.35 735.93 135.35C710.50 135.35 689.09 156.00 689.09 186.21C689.09 216.62 710.50 237.08 735.93 237.08C748.36 237.08 758.31 233.25 765.76 226.56L765.76 234.21ZM742.24 211.07C728.86 211.07 719.11 201.13 719.11 186.21C719.11 171.49 728.86 161.36 742.24 161.36C754.67 161.36 765.76 171.49 765.76 186.21C765.76 201.13 754.67 211.07 742.24 211.07Z"/><path fill="#082e40" d="M841.72 203.04L811.89 209.16C815.15 228.86 834.46 237.08 857.02 237.08C882.26 237.08 900.62 225.99 900.62 204.76C900.62 190.61 892.21 179.71 874.04 175.89L851.48 171.30C845.36 169.96 844.21 167.28 844.21 164.61C844.21 161.16 846.89 157.15 855.11 157.15C864.48 157.15 870.22 162.50 871.17 168.43L899.09 162.89C895.27 146.25 879.40 135.35 855.49 135.35C831.21 135.35 814.19 148.16 814.19 167.86C814.19 182.96 824.32 192.52 842.11 195.77L861.61 199.60C868.69 200.94 871.17 203.42 871.17 206.67C871.17 210.88 866.77 214.32 858.74 214.32C850.52 214.32 843.06 211.26 841.72 203.04Z"/></g><g id='secondary_textGroup'></g></svg>